<mxfile host="Electron" modified="2024-01-04T20:35:16.312Z" agent="Mozilla/5.0 (Windows NT 10.0; Win64; x64) AppleWebKit/537.36 (KHTML, like Gecko) draw.io/22.1.16 Chrome/120.0.6099.109 Electron/28.1.0 Safari/537.36" etag="rgNTDLYqAhdYl8xkbIi0" version="22.1.16" type="device">
  <diagram name="Page-1" id="SkT4W5e9hl3MULt2VnGa">
    <mxGraphModel dx="2656" dy="1696" grid="1" gridSize="10" guides="1" tooltips="1" connect="1" arrows="1" fold="1" page="1" pageScale="1" pageWidth="827" pageHeight="1169" math="0" shadow="0">
      <root>
        <mxCell id="0" />
        <mxCell id="1" parent="0" />
        <mxCell id="q0DtASkK2RmU4y-HPJjd-1" value="User" style="shape=umlActor;verticalLabelPosition=bottom;verticalAlign=top;html=1;outlineConnect=0;" parent="1" vertex="1">
          <mxGeometry x="80" y="60" width="30" height="60" as="geometry" />
        </mxCell>
        <mxCell id="q0DtASkK2RmU4y-HPJjd-2" value="User" style="shape=umlActor;verticalLabelPosition=bottom;verticalAlign=top;html=1;outlineConnect=0;" parent="1" vertex="1">
          <mxGeometry x="80" y="300" width="30" height="60" as="geometry" />
        </mxCell>
        <mxCell id="q0DtASkK2RmU4y-HPJjd-22" style="edgeStyle=orthogonalEdgeStyle;rounded=0;orthogonalLoop=1;jettySize=auto;html=1;exitX=1;exitY=0.5;exitDx=0;exitDy=0;entryX=0;entryY=0.5;entryDx=0;entryDy=0;" parent="1" source="q0DtASkK2RmU4y-HPJjd-7" target="q0DtASkK2RmU4y-HPJjd-8" edge="1">
          <mxGeometry relative="1" as="geometry" />
        </mxCell>
        <mxCell id="q0DtASkK2RmU4y-HPJjd-7" value="View Section" style="ellipse;whiteSpace=wrap;html=1;" parent="1" vertex="1">
          <mxGeometry x="180" y="60" width="120" height="80" as="geometry" />
        </mxCell>
        <mxCell id="q0DtASkK2RmU4y-HPJjd-21" style="edgeStyle=orthogonalEdgeStyle;rounded=0;orthogonalLoop=1;jettySize=auto;html=1;exitX=1;exitY=0.5;exitDx=0;exitDy=0;entryX=0;entryY=0.5;entryDx=0;entryDy=0;" parent="1" source="q0DtASkK2RmU4y-HPJjd-8" target="q0DtASkK2RmU4y-HPJjd-10" edge="1">
          <mxGeometry relative="1" as="geometry" />
        </mxCell>
        <mxCell id="q0DtASkK2RmU4y-HPJjd-8" value="Load all objects from JSON database" style="ellipse;whiteSpace=wrap;html=1;" parent="1" vertex="1">
          <mxGeometry x="340" y="60" width="120" height="80" as="geometry" />
        </mxCell>
        <mxCell id="q0DtASkK2RmU4y-HPJjd-19" style="edgeStyle=orthogonalEdgeStyle;rounded=0;orthogonalLoop=1;jettySize=auto;html=1;exitX=1;exitY=0.5;exitDx=0;exitDy=0;entryX=0;entryY=0.5;entryDx=0;entryDy=0;" parent="1" source="q0DtASkK2RmU4y-HPJjd-10" target="q0DtASkK2RmU4y-HPJjd-12" edge="1">
          <mxGeometry relative="1" as="geometry" />
        </mxCell>
        <mxCell id="q0DtASkK2RmU4y-HPJjd-10" value="Load object into memory" style="rounded=0;whiteSpace=wrap;html=1;" parent="1" vertex="1">
          <mxGeometry x="510" y="70" width="120" height="60" as="geometry" />
        </mxCell>
        <mxCell id="q0DtASkK2RmU4y-HPJjd-13" style="edgeStyle=orthogonalEdgeStyle;rounded=0;orthogonalLoop=1;jettySize=auto;html=1;exitX=0.5;exitY=1;exitDx=0;exitDy=0;entryX=0.5;entryY=1;entryDx=0;entryDy=0;" parent="1" source="q0DtASkK2RmU4y-HPJjd-11" target="q0DtASkK2RmU4y-HPJjd-12" edge="1">
          <mxGeometry relative="1" as="geometry" />
        </mxCell>
        <mxCell id="q0DtASkK2RmU4y-HPJjd-14" value="No" style="edgeLabel;html=1;align=center;verticalAlign=middle;resizable=0;points=[];" parent="q0DtASkK2RmU4y-HPJjd-13" vertex="1" connectable="0">
          <mxGeometry x="-0.0952" y="1" relative="1" as="geometry">
            <mxPoint x="-8" as="offset" />
          </mxGeometry>
        </mxCell>
        <mxCell id="q0DtASkK2RmU4y-HPJjd-18" style="edgeStyle=orthogonalEdgeStyle;rounded=0;orthogonalLoop=1;jettySize=auto;html=1;exitX=1;exitY=0.5;exitDx=0;exitDy=0;entryX=0;entryY=0.5;entryDx=0;entryDy=0;" parent="1" source="q0DtASkK2RmU4y-HPJjd-11" target="q0DtASkK2RmU4y-HPJjd-15" edge="1">
          <mxGeometry relative="1" as="geometry" />
        </mxCell>
        <mxCell id="q0DtASkK2RmU4y-HPJjd-23" value="Yes" style="edgeLabel;html=1;align=center;verticalAlign=middle;resizable=0;points=[];" parent="q0DtASkK2RmU4y-HPJjd-18" vertex="1" connectable="0">
          <mxGeometry x="0.1" y="1" relative="1" as="geometry">
            <mxPoint x="-3" y="1" as="offset" />
          </mxGeometry>
        </mxCell>
        <mxCell id="q0DtASkK2RmU4y-HPJjd-11" value="Last&lt;br&gt;attribute?" style="rhombus;whiteSpace=wrap;html=1;" parent="1" vertex="1">
          <mxGeometry x="870" y="60" width="80" height="80" as="geometry" />
        </mxCell>
        <mxCell id="q0DtASkK2RmU4y-HPJjd-20" style="edgeStyle=orthogonalEdgeStyle;rounded=0;orthogonalLoop=1;jettySize=auto;html=1;exitX=1;exitY=0.5;exitDx=0;exitDy=0;entryX=0;entryY=0.5;entryDx=0;entryDy=0;" parent="1" source="q0DtASkK2RmU4y-HPJjd-12" target="q0DtASkK2RmU4y-HPJjd-11" edge="1">
          <mxGeometry relative="1" as="geometry" />
        </mxCell>
        <mxCell id="q0DtASkK2RmU4y-HPJjd-12" value="Display each attributes value" style="rounded=0;whiteSpace=wrap;html=1;" parent="1" vertex="1">
          <mxGeometry x="690" y="70" width="120" height="60" as="geometry" />
        </mxCell>
        <mxCell id="q0DtASkK2RmU4y-HPJjd-16" style="edgeStyle=orthogonalEdgeStyle;rounded=0;orthogonalLoop=1;jettySize=auto;html=1;exitX=0.5;exitY=1;exitDx=0;exitDy=0;entryX=0.5;entryY=1;entryDx=0;entryDy=0;" parent="1" source="q0DtASkK2RmU4y-HPJjd-15" target="q0DtASkK2RmU4y-HPJjd-10" edge="1">
          <mxGeometry relative="1" as="geometry">
            <Array as="points">
              <mxPoint x="1050" y="200" />
              <mxPoint x="570" y="200" />
            </Array>
          </mxGeometry>
        </mxCell>
        <mxCell id="q0DtASkK2RmU4y-HPJjd-17" value="No" style="edgeLabel;html=1;align=center;verticalAlign=middle;resizable=0;points=[];" parent="q0DtASkK2RmU4y-HPJjd-16" vertex="1" connectable="0">
          <mxGeometry x="-0.0689" y="-1" relative="1" as="geometry">
            <mxPoint as="offset" />
          </mxGeometry>
        </mxCell>
        <mxCell id="q0DtASkK2RmU4y-HPJjd-26" style="edgeStyle=orthogonalEdgeStyle;rounded=0;orthogonalLoop=1;jettySize=auto;html=1;exitX=1;exitY=0.5;exitDx=0;exitDy=0;entryX=0;entryY=0.5;entryDx=0;entryDy=0;" parent="1" source="q0DtASkK2RmU4y-HPJjd-15" target="q0DtASkK2RmU4y-HPJjd-24" edge="1">
          <mxGeometry relative="1" as="geometry" />
        </mxCell>
        <mxCell id="q0DtASkK2RmU4y-HPJjd-15" value="Last object" style="rhombus;whiteSpace=wrap;html=1;" parent="1" vertex="1">
          <mxGeometry x="1010" y="60" width="80" height="80" as="geometry" />
        </mxCell>
        <mxCell id="q0DtASkK2RmU4y-HPJjd-27" style="edgeStyle=orthogonalEdgeStyle;rounded=0;orthogonalLoop=1;jettySize=auto;html=1;exitX=1;exitY=0.5;exitDx=0;exitDy=0;entryX=0;entryY=0.5;entryDx=0;entryDy=0;" parent="1" source="q0DtASkK2RmU4y-HPJjd-24" target="q0DtASkK2RmU4y-HPJjd-25" edge="1">
          <mxGeometry relative="1" as="geometry" />
        </mxCell>
        <mxCell id="q0DtASkK2RmU4y-HPJjd-24" value="Calculate total value&lt;br&gt;of all objects" style="rounded=0;whiteSpace=wrap;html=1;" parent="1" vertex="1">
          <mxGeometry x="1150" y="70" width="120" height="60" as="geometry" />
        </mxCell>
        <mxCell id="q0DtASkK2RmU4y-HPJjd-25" value="Display total value" style="ellipse;whiteSpace=wrap;html=1;" parent="1" vertex="1">
          <mxGeometry x="1330" y="60" width="120" height="80" as="geometry" />
        </mxCell>
        <mxCell id="oMr2OzRMPqvlUtYlj50l-10" style="edgeStyle=orthogonalEdgeStyle;rounded=0;orthogonalLoop=1;jettySize=auto;html=1;exitX=1;exitY=0.5;exitDx=0;exitDy=0;entryX=0;entryY=0.5;entryDx=0;entryDy=0;" edge="1" parent="1" source="q0DtASkK2RmU4y-HPJjd-28" target="oMr2OzRMPqvlUtYlj50l-9">
          <mxGeometry relative="1" as="geometry" />
        </mxCell>
        <mxCell id="q0DtASkK2RmU4y-HPJjd-28" value="Add Section" style="ellipse;whiteSpace=wrap;html=1;" parent="1" vertex="1">
          <mxGeometry x="180" y="300" width="120" height="80" as="geometry" />
        </mxCell>
        <mxCell id="oMr2OzRMPqvlUtYlj50l-12" style="edgeStyle=orthogonalEdgeStyle;rounded=0;orthogonalLoop=1;jettySize=auto;html=1;exitX=0.5;exitY=1;exitDx=0;exitDy=0;entryX=0.5;entryY=0;entryDx=0;entryDy=0;endArrow=none;endFill=0;" edge="1" parent="1" source="oMr2OzRMPqvlUtYlj50l-2" target="oMr2OzRMPqvlUtYlj50l-3">
          <mxGeometry relative="1" as="geometry" />
        </mxCell>
        <mxCell id="oMr2OzRMPqvlUtYlj50l-2" value="&quot;brand&quot;&lt;br&gt;input autofocus type=&quot;text&quot; required" style="rounded=1;whiteSpace=wrap;html=1;" vertex="1" parent="1">
          <mxGeometry x="510" y="310" width="120" height="60" as="geometry" />
        </mxCell>
        <mxCell id="oMr2OzRMPqvlUtYlj50l-13" style="edgeStyle=orthogonalEdgeStyle;rounded=0;orthogonalLoop=1;jettySize=auto;html=1;exitX=0.5;exitY=1;exitDx=0;exitDy=0;entryX=0.5;entryY=0;entryDx=0;entryDy=0;endArrow=none;endFill=0;" edge="1" parent="1" source="oMr2OzRMPqvlUtYlj50l-3" target="oMr2OzRMPqvlUtYlj50l-4">
          <mxGeometry relative="1" as="geometry" />
        </mxCell>
        <mxCell id="oMr2OzRMPqvlUtYlj50l-3" value="&quot;condition&quot;&lt;br&gt;select&amp;nbsp;required" style="rounded=1;whiteSpace=wrap;html=1;" vertex="1" parent="1">
          <mxGeometry x="510" y="380" width="120" height="60" as="geometry" />
        </mxCell>
        <mxCell id="oMr2OzRMPqvlUtYlj50l-14" style="edgeStyle=orthogonalEdgeStyle;rounded=0;orthogonalLoop=1;jettySize=auto;html=1;exitX=0.5;exitY=1;exitDx=0;exitDy=0;entryX=0.5;entryY=0;entryDx=0;entryDy=0;endArrow=none;endFill=0;" edge="1" parent="1" source="oMr2OzRMPqvlUtYlj50l-4" target="oMr2OzRMPqvlUtYlj50l-5">
          <mxGeometry relative="1" as="geometry" />
        </mxCell>
        <mxCell id="oMr2OzRMPqvlUtYlj50l-4" value="&quot;value&quot;&lt;br&gt;input type=&quot;number&quot; step=&quot;0.01&quot; min=&quot;0&quot;&amp;nbsp;required" style="rounded=1;whiteSpace=wrap;html=1;" vertex="1" parent="1">
          <mxGeometry x="510" y="450" width="120" height="60" as="geometry" />
        </mxCell>
        <mxCell id="oMr2OzRMPqvlUtYlj50l-15" style="edgeStyle=orthogonalEdgeStyle;rounded=0;orthogonalLoop=1;jettySize=auto;html=1;exitX=0.5;exitY=1;exitDx=0;exitDy=0;entryX=0.5;entryY=0;entryDx=0;entryDy=0;endArrow=none;endFill=0;" edge="1" parent="1" source="oMr2OzRMPqvlUtYlj50l-5" target="oMr2OzRMPqvlUtYlj50l-6">
          <mxGeometry relative="1" as="geometry" />
        </mxCell>
        <mxCell id="oMr2OzRMPqvlUtYlj50l-5" value="&quot;quantity&quot;&lt;br&gt;input type=&quot;number&quot; min=&quot;1&quot;&amp;nbsp;required" style="rounded=1;whiteSpace=wrap;html=1;" vertex="1" parent="1">
          <mxGeometry x="510" y="520" width="120" height="60" as="geometry" />
        </mxCell>
        <mxCell id="oMr2OzRMPqvlUtYlj50l-16" style="edgeStyle=orthogonalEdgeStyle;rounded=0;orthogonalLoop=1;jettySize=auto;html=1;exitX=0.5;exitY=1;exitDx=0;exitDy=0;entryX=0.5;entryY=0;entryDx=0;entryDy=0;endArrow=none;endFill=0;" edge="1" parent="1" source="oMr2OzRMPqvlUtYlj50l-6" target="oMr2OzRMPqvlUtYlj50l-7">
          <mxGeometry relative="1" as="geometry" />
        </mxCell>
        <mxCell id="oMr2OzRMPqvlUtYlj50l-6" value="&quot;location&quot;&lt;br&gt;input type=&quot;text&quot;&amp;nbsp;required" style="rounded=1;whiteSpace=wrap;html=1;" vertex="1" parent="1">
          <mxGeometry x="510" y="590" width="120" height="60" as="geometry" />
        </mxCell>
        <mxCell id="oMr2OzRMPqvlUtYlj50l-7" value="&quot;notes&quot;&lt;br&gt;textarea" style="rounded=1;whiteSpace=wrap;html=1;" vertex="1" parent="1">
          <mxGeometry x="510" y="660" width="120" height="60" as="geometry" />
        </mxCell>
        <mxCell id="oMr2OzRMPqvlUtYlj50l-23" style="edgeStyle=orthogonalEdgeStyle;rounded=0;orthogonalLoop=1;jettySize=auto;html=1;exitX=1;exitY=0.5;exitDx=0;exitDy=0;entryX=0;entryY=0.5;entryDx=0;entryDy=0;" edge="1" parent="1" source="oMr2OzRMPqvlUtYlj50l-8" target="oMr2OzRMPqvlUtYlj50l-22">
          <mxGeometry relative="1" as="geometry" />
        </mxCell>
        <mxCell id="oMr2OzRMPqvlUtYlj50l-8" value="&quot;submit&quot;&lt;br&gt;buttom type=&quot;submit&quot;" style="rounded=1;whiteSpace=wrap;html=1;" vertex="1" parent="1">
          <mxGeometry x="510" y="730" width="120" height="60" as="geometry" />
        </mxCell>
        <mxCell id="oMr2OzRMPqvlUtYlj50l-11" style="edgeStyle=orthogonalEdgeStyle;rounded=0;orthogonalLoop=1;jettySize=auto;html=1;exitX=1;exitY=0.5;exitDx=0;exitDy=0;entryX=0;entryY=0.5;entryDx=0;entryDy=0;" edge="1" parent="1" source="oMr2OzRMPqvlUtYlj50l-9" target="oMr2OzRMPqvlUtYlj50l-2">
          <mxGeometry relative="1" as="geometry" />
        </mxCell>
        <mxCell id="oMr2OzRMPqvlUtYlj50l-9" value="User fills in form" style="shape=parallelogram;perimeter=parallelogramPerimeter;whiteSpace=wrap;html=1;fixedSize=1;" vertex="1" parent="1">
          <mxGeometry x="340" y="310" width="120" height="60" as="geometry" />
        </mxCell>
        <mxCell id="oMr2OzRMPqvlUtYlj50l-21" style="edgeStyle=orthogonalEdgeStyle;rounded=0;orthogonalLoop=1;jettySize=auto;html=1;exitX=0.5;exitY=1;exitDx=0;exitDy=0;entryX=0.5;entryY=0;entryDx=0;entryDy=0;endArrow=none;endFill=0;" edge="1" parent="1" source="oMr2OzRMPqvlUtYlj50l-18" target="oMr2OzRMPqvlUtYlj50l-8">
          <mxGeometry relative="1" as="geometry" />
        </mxCell>
        <mxCell id="oMr2OzRMPqvlUtYlj50l-18" value="&quot;quantity&quot;&lt;br&gt;input type=&quot;number&quot; min=&quot;1&quot;&amp;nbsp;required" style="rounded=1;whiteSpace=wrap;html=1;" vertex="1" parent="1">
          <mxGeometry x="510" y="660" width="120" height="60" as="geometry" />
        </mxCell>
        <mxCell id="oMr2OzRMPqvlUtYlj50l-26" style="edgeStyle=orthogonalEdgeStyle;rounded=0;orthogonalLoop=1;jettySize=auto;html=1;exitX=1;exitY=0.5;exitDx=0;exitDy=0;entryX=0;entryY=0.5;entryDx=0;entryDy=0;" edge="1" parent="1" source="oMr2OzRMPqvlUtYlj50l-22" target="oMr2OzRMPqvlUtYlj50l-25">
          <mxGeometry relative="1" as="geometry" />
        </mxCell>
        <mxCell id="oMr2OzRMPqvlUtYlj50l-22" value="&lt;font style=&quot;font-size: 10px;&quot;&gt;On submit,&lt;br&gt;action=&quot;handleSubmit()&quot;&lt;/font&gt;" style="rounded=0;whiteSpace=wrap;html=1;" vertex="1" parent="1">
          <mxGeometry x="690" y="310" width="120" height="60" as="geometry" />
        </mxCell>
        <mxCell id="oMr2OzRMPqvlUtYlj50l-29" style="edgeStyle=orthogonalEdgeStyle;rounded=0;orthogonalLoop=1;jettySize=auto;html=1;exitX=1;exitY=0.5;exitDx=0;exitDy=0;entryX=0;entryY=0.5;entryDx=0;entryDy=0;" edge="1" parent="1" source="oMr2OzRMPqvlUtYlj50l-24" target="oMr2OzRMPqvlUtYlj50l-27">
          <mxGeometry relative="1" as="geometry" />
        </mxCell>
        <mxCell id="oMr2OzRMPqvlUtYlj50l-24" value="Append to JSON array" style="shape=document;whiteSpace=wrap;html=1;boundedLbl=1;" vertex="1" parent="1">
          <mxGeometry x="990" y="300" width="120" height="80" as="geometry" />
        </mxCell>
        <mxCell id="oMr2OzRMPqvlUtYlj50l-28" style="edgeStyle=orthogonalEdgeStyle;rounded=0;orthogonalLoop=1;jettySize=auto;html=1;exitX=1;exitY=0.5;exitDx=0;exitDy=0;entryX=0;entryY=0.5;entryDx=0;entryDy=0;" edge="1" parent="1" source="oMr2OzRMPqvlUtYlj50l-25" target="oMr2OzRMPqvlUtYlj50l-24">
          <mxGeometry relative="1" as="geometry" />
        </mxCell>
        <mxCell id="oMr2OzRMPqvlUtYlj50l-25" value="Load all objects from JSON database" style="ellipse;whiteSpace=wrap;html=1;" vertex="1" parent="1">
          <mxGeometry x="850" y="300" width="120" height="80" as="geometry" />
        </mxCell>
        <mxCell id="oMr2OzRMPqvlUtYlj50l-31" style="edgeStyle=orthogonalEdgeStyle;rounded=0;orthogonalLoop=1;jettySize=auto;html=1;exitX=1;exitY=0.5;exitDx=0;exitDy=0;entryX=0;entryY=0.5;entryDx=0;entryDy=0;" edge="1" parent="1" source="oMr2OzRMPqvlUtYlj50l-27" target="oMr2OzRMPqvlUtYlj50l-30">
          <mxGeometry relative="1" as="geometry" />
        </mxCell>
        <mxCell id="oMr2OzRMPqvlUtYlj50l-27" value="Write updated JSON array to file" style="rounded=0;whiteSpace=wrap;html=1;" vertex="1" parent="1">
          <mxGeometry x="1150" y="310" width="120" height="60" as="geometry" />
        </mxCell>
        <mxCell id="oMr2OzRMPqvlUtYlj50l-30" value="Refresh:&lt;br&gt;window.location.href = &quot;/&quot;;" style="ellipse;whiteSpace=wrap;html=1;" vertex="1" parent="1">
          <mxGeometry x="1330" y="300" width="120" height="80" as="geometry" />
        </mxCell>
        <mxCell id="oMr2OzRMPqvlUtYlj50l-32" value="User" style="shape=umlActor;verticalLabelPosition=bottom;verticalAlign=top;html=1;outlineConnect=0;" vertex="1" parent="1">
          <mxGeometry x="80" y="860" width="30" height="60" as="geometry" />
        </mxCell>
        <mxCell id="oMr2OzRMPqvlUtYlj50l-54" style="edgeStyle=orthogonalEdgeStyle;rounded=0;orthogonalLoop=1;jettySize=auto;html=1;exitX=1;exitY=0.5;exitDx=0;exitDy=0;entryX=0;entryY=0.5;entryDx=0;entryDy=0;" edge="1" parent="1" source="oMr2OzRMPqvlUtYlj50l-33" target="oMr2OzRMPqvlUtYlj50l-35">
          <mxGeometry relative="1" as="geometry" />
        </mxCell>
        <mxCell id="oMr2OzRMPqvlUtYlj50l-33" value="Edit Section" style="ellipse;whiteSpace=wrap;html=1;" vertex="1" parent="1">
          <mxGeometry x="180" y="860" width="120" height="80" as="geometry" />
        </mxCell>
        <mxCell id="oMr2OzRMPqvlUtYlj50l-51" style="edgeStyle=orthogonalEdgeStyle;rounded=0;orthogonalLoop=1;jettySize=auto;html=1;exitX=1;exitY=0.5;exitDx=0;exitDy=0;entryX=0;entryY=0.5;entryDx=0;entryDy=0;" edge="1" parent="1" source="oMr2OzRMPqvlUtYlj50l-34" target="oMr2OzRMPqvlUtYlj50l-36">
          <mxGeometry relative="1" as="geometry" />
        </mxCell>
        <mxCell id="oMr2OzRMPqvlUtYlj50l-34" value="User fills in form" style="shape=parallelogram;perimeter=parallelogramPerimeter;whiteSpace=wrap;html=1;fixedSize=1;" vertex="1" parent="1">
          <mxGeometry x="510" y="870" width="120" height="60" as="geometry" />
        </mxCell>
        <mxCell id="oMr2OzRMPqvlUtYlj50l-53" style="edgeStyle=orthogonalEdgeStyle;rounded=0;orthogonalLoop=1;jettySize=auto;html=1;exitX=1;exitY=0.5;exitDx=0;exitDy=0;entryX=0;entryY=0.5;entryDx=0;entryDy=0;" edge="1" parent="1" source="oMr2OzRMPqvlUtYlj50l-35" target="oMr2OzRMPqvlUtYlj50l-34">
          <mxGeometry relative="1" as="geometry" />
        </mxCell>
        <mxCell id="oMr2OzRMPqvlUtYlj50l-35" value="Load all objects from JSON database" style="ellipse;whiteSpace=wrap;html=1;" vertex="1" parent="1">
          <mxGeometry x="340" y="860" width="120" height="80" as="geometry" />
        </mxCell>
        <mxCell id="oMr2OzRMPqvlUtYlj50l-52" style="edgeStyle=orthogonalEdgeStyle;rounded=0;orthogonalLoop=1;jettySize=auto;html=1;exitX=0.5;exitY=1;exitDx=0;exitDy=0;entryX=0.5;entryY=0;entryDx=0;entryDy=0;endArrow=none;endFill=0;" edge="1" parent="1" source="oMr2OzRMPqvlUtYlj50l-36" target="oMr2OzRMPqvlUtYlj50l-38">
          <mxGeometry relative="1" as="geometry" />
        </mxCell>
        <mxCell id="oMr2OzRMPqvlUtYlj50l-36" value="&quot;current_brand&quot;&lt;br&gt;select required&lt;br&gt;(options brands)" style="rounded=1;whiteSpace=wrap;html=1;" vertex="1" parent="1">
          <mxGeometry x="680" y="870" width="120" height="60" as="geometry" />
        </mxCell>
        <mxCell id="oMr2OzRMPqvlUtYlj50l-37" style="edgeStyle=orthogonalEdgeStyle;rounded=0;orthogonalLoop=1;jettySize=auto;html=1;exitX=0.5;exitY=1;exitDx=0;exitDy=0;entryX=0.5;entryY=0;entryDx=0;entryDy=0;endArrow=none;endFill=0;" edge="1" parent="1" source="oMr2OzRMPqvlUtYlj50l-38" target="oMr2OzRMPqvlUtYlj50l-40">
          <mxGeometry relative="1" as="geometry" />
        </mxCell>
        <mxCell id="oMr2OzRMPqvlUtYlj50l-38" value="&quot;brand&quot;&lt;br&gt;input autofocus type=&quot;text&quot; required" style="rounded=1;whiteSpace=wrap;html=1;" vertex="1" parent="1">
          <mxGeometry x="680" y="940" width="120" height="60" as="geometry" />
        </mxCell>
        <mxCell id="oMr2OzRMPqvlUtYlj50l-39" style="edgeStyle=orthogonalEdgeStyle;rounded=0;orthogonalLoop=1;jettySize=auto;html=1;exitX=0.5;exitY=1;exitDx=0;exitDy=0;entryX=0.5;entryY=0;entryDx=0;entryDy=0;endArrow=none;endFill=0;" edge="1" parent="1" source="oMr2OzRMPqvlUtYlj50l-40" target="oMr2OzRMPqvlUtYlj50l-42">
          <mxGeometry relative="1" as="geometry" />
        </mxCell>
        <mxCell id="oMr2OzRMPqvlUtYlj50l-40" value="&quot;condition&quot;&lt;br&gt;select&amp;nbsp;required" style="rounded=1;whiteSpace=wrap;html=1;" vertex="1" parent="1">
          <mxGeometry x="680" y="1010" width="120" height="60" as="geometry" />
        </mxCell>
        <mxCell id="oMr2OzRMPqvlUtYlj50l-41" style="edgeStyle=orthogonalEdgeStyle;rounded=0;orthogonalLoop=1;jettySize=auto;html=1;exitX=0.5;exitY=1;exitDx=0;exitDy=0;entryX=0.5;entryY=0;entryDx=0;entryDy=0;endArrow=none;endFill=0;" edge="1" parent="1" source="oMr2OzRMPqvlUtYlj50l-42" target="oMr2OzRMPqvlUtYlj50l-44">
          <mxGeometry relative="1" as="geometry" />
        </mxCell>
        <mxCell id="oMr2OzRMPqvlUtYlj50l-42" value="&quot;value&quot;&lt;br&gt;input type=&quot;number&quot; step=&quot;0.01&quot; min=&quot;0&quot;&amp;nbsp;required" style="rounded=1;whiteSpace=wrap;html=1;" vertex="1" parent="1">
          <mxGeometry x="680" y="1080" width="120" height="60" as="geometry" />
        </mxCell>
        <mxCell id="oMr2OzRMPqvlUtYlj50l-43" style="edgeStyle=orthogonalEdgeStyle;rounded=0;orthogonalLoop=1;jettySize=auto;html=1;exitX=0.5;exitY=1;exitDx=0;exitDy=0;entryX=0.5;entryY=0;entryDx=0;entryDy=0;endArrow=none;endFill=0;" edge="1" parent="1" source="oMr2OzRMPqvlUtYlj50l-44" target="oMr2OzRMPqvlUtYlj50l-46">
          <mxGeometry relative="1" as="geometry" />
        </mxCell>
        <mxCell id="oMr2OzRMPqvlUtYlj50l-44" value="&quot;quantity&quot;&lt;br&gt;input type=&quot;number&quot; min=&quot;1&quot;&amp;nbsp;required" style="rounded=1;whiteSpace=wrap;html=1;" vertex="1" parent="1">
          <mxGeometry x="680" y="1150" width="120" height="60" as="geometry" />
        </mxCell>
        <mxCell id="oMr2OzRMPqvlUtYlj50l-45" style="edgeStyle=orthogonalEdgeStyle;rounded=0;orthogonalLoop=1;jettySize=auto;html=1;exitX=0.5;exitY=1;exitDx=0;exitDy=0;entryX=0.5;entryY=0;entryDx=0;entryDy=0;endArrow=none;endFill=0;" edge="1" parent="1" source="oMr2OzRMPqvlUtYlj50l-46" target="oMr2OzRMPqvlUtYlj50l-47">
          <mxGeometry relative="1" as="geometry" />
        </mxCell>
        <mxCell id="oMr2OzRMPqvlUtYlj50l-46" value="&quot;location&quot;&lt;br&gt;input type=&quot;text&quot;&amp;nbsp;required" style="rounded=1;whiteSpace=wrap;html=1;" vertex="1" parent="1">
          <mxGeometry x="680" y="1220" width="120" height="60" as="geometry" />
        </mxCell>
        <mxCell id="oMr2OzRMPqvlUtYlj50l-47" value="&quot;notes&quot;&lt;br&gt;textarea" style="rounded=1;whiteSpace=wrap;html=1;" vertex="1" parent="1">
          <mxGeometry x="680" y="1290" width="120" height="60" as="geometry" />
        </mxCell>
        <mxCell id="oMr2OzRMPqvlUtYlj50l-69" style="edgeStyle=orthogonalEdgeStyle;rounded=0;orthogonalLoop=1;jettySize=auto;html=1;exitX=1;exitY=0.5;exitDx=0;exitDy=0;entryX=0;entryY=0.5;entryDx=0;entryDy=0;" edge="1" parent="1" source="oMr2OzRMPqvlUtYlj50l-48" target="oMr2OzRMPqvlUtYlj50l-57">
          <mxGeometry relative="1" as="geometry">
            <Array as="points">
              <mxPoint x="840" y="1390" />
              <mxPoint x="840" y="900" />
            </Array>
          </mxGeometry>
        </mxCell>
        <mxCell id="oMr2OzRMPqvlUtYlj50l-48" value="&quot;submit&quot;&lt;br&gt;buttom type=&quot;submit&quot;" style="rounded=1;whiteSpace=wrap;html=1;" vertex="1" parent="1">
          <mxGeometry x="680" y="1360" width="120" height="60" as="geometry" />
        </mxCell>
        <mxCell id="oMr2OzRMPqvlUtYlj50l-49" style="edgeStyle=orthogonalEdgeStyle;rounded=0;orthogonalLoop=1;jettySize=auto;html=1;exitX=0.5;exitY=1;exitDx=0;exitDy=0;entryX=0.5;entryY=0;entryDx=0;entryDy=0;endArrow=none;endFill=0;" edge="1" parent="1" source="oMr2OzRMPqvlUtYlj50l-50" target="oMr2OzRMPqvlUtYlj50l-48">
          <mxGeometry relative="1" as="geometry" />
        </mxCell>
        <mxCell id="oMr2OzRMPqvlUtYlj50l-50" value="&quot;quantity&quot;&lt;br&gt;input type=&quot;number&quot; min=&quot;1&quot;&amp;nbsp;required" style="rounded=1;whiteSpace=wrap;html=1;" vertex="1" parent="1">
          <mxGeometry x="680" y="1290" width="120" height="60" as="geometry" />
        </mxCell>
        <mxCell id="oMr2OzRMPqvlUtYlj50l-67" style="edgeStyle=orthogonalEdgeStyle;rounded=0;orthogonalLoop=1;jettySize=auto;html=1;exitX=1;exitY=0.5;exitDx=0;exitDy=0;entryX=0;entryY=0.5;entryDx=0;entryDy=0;" edge="1" parent="1" source="oMr2OzRMPqvlUtYlj50l-57" target="oMr2OzRMPqvlUtYlj50l-65">
          <mxGeometry relative="1" as="geometry" />
        </mxCell>
        <mxCell id="oMr2OzRMPqvlUtYlj50l-57" value="Iterate through JSON&lt;br&gt;array" style="rounded=0;whiteSpace=wrap;html=1;" vertex="1" parent="1">
          <mxGeometry x="880" y="870" width="120" height="60" as="geometry" />
        </mxCell>
        <mxCell id="oMr2OzRMPqvlUtYlj50l-68" style="edgeStyle=orthogonalEdgeStyle;rounded=0;orthogonalLoop=1;jettySize=auto;html=1;exitX=0;exitY=0.5;exitDx=0;exitDy=0;" edge="1" parent="1" source="oMr2OzRMPqvlUtYlj50l-61">
          <mxGeometry relative="1" as="geometry">
            <mxPoint x="1080.166666666667" y="899.9999999999998" as="targetPoint" />
            <Array as="points">
              <mxPoint x="1040" y="1000" />
              <mxPoint x="1040" y="900" />
            </Array>
          </mxGeometry>
        </mxCell>
        <mxCell id="oMr2OzRMPqvlUtYlj50l-61" value="No" style="rounded=0;whiteSpace=wrap;html=1;" vertex="1" parent="1">
          <mxGeometry x="1080" y="980" width="80" height="40" as="geometry" />
        </mxCell>
        <mxCell id="oMr2OzRMPqvlUtYlj50l-73" style="edgeStyle=orthogonalEdgeStyle;rounded=0;orthogonalLoop=1;jettySize=auto;html=1;exitX=1;exitY=0.5;exitDx=0;exitDy=0;entryX=0;entryY=0.5;entryDx=0;entryDy=0;" edge="1" parent="1" source="oMr2OzRMPqvlUtYlj50l-62" target="oMr2OzRMPqvlUtYlj50l-71">
          <mxGeometry relative="1" as="geometry" />
        </mxCell>
        <mxCell id="oMr2OzRMPqvlUtYlj50l-62" value="Yes" style="rounded=0;whiteSpace=wrap;html=1;" vertex="1" parent="1">
          <mxGeometry x="1220" y="880" width="80" height="40" as="geometry" />
        </mxCell>
        <mxCell id="oMr2OzRMPqvlUtYlj50l-66" style="edgeStyle=orthogonalEdgeStyle;rounded=0;orthogonalLoop=1;jettySize=auto;html=1;exitX=0.5;exitY=1;exitDx=0;exitDy=0;entryX=0.5;entryY=0;entryDx=0;entryDy=0;" edge="1" parent="1" source="oMr2OzRMPqvlUtYlj50l-65" target="oMr2OzRMPqvlUtYlj50l-61">
          <mxGeometry relative="1" as="geometry" />
        </mxCell>
        <mxCell id="oMr2OzRMPqvlUtYlj50l-70" style="edgeStyle=orthogonalEdgeStyle;rounded=0;orthogonalLoop=1;jettySize=auto;html=1;exitX=1;exitY=0.5;exitDx=0;exitDy=0;entryX=0;entryY=0.5;entryDx=0;entryDy=0;" edge="1" parent="1" source="oMr2OzRMPqvlUtYlj50l-65" target="oMr2OzRMPqvlUtYlj50l-62">
          <mxGeometry relative="1" as="geometry" />
        </mxCell>
        <mxCell id="oMr2OzRMPqvlUtYlj50l-65" value="&lt;font style=&quot;font-size: 10px;&quot;&gt;Is element == current_brand?&lt;/font&gt;" style="rhombus;whiteSpace=wrap;html=1;" vertex="1" parent="1">
          <mxGeometry x="1080" y="860" width="80" height="80" as="geometry" />
        </mxCell>
        <mxCell id="oMr2OzRMPqvlUtYlj50l-74" style="edgeStyle=orthogonalEdgeStyle;rounded=0;orthogonalLoop=1;jettySize=auto;html=1;exitX=1;exitY=0.5;exitDx=0;exitDy=0;entryX=0;entryY=0.5;entryDx=0;entryDy=0;" edge="1" parent="1" source="oMr2OzRMPqvlUtYlj50l-71" target="oMr2OzRMPqvlUtYlj50l-72">
          <mxGeometry relative="1" as="geometry" />
        </mxCell>
        <mxCell id="oMr2OzRMPqvlUtYlj50l-71" value="Update changed attributes" style="rounded=1;whiteSpace=wrap;html=1;" vertex="1" parent="1">
          <mxGeometry x="1340" y="870" width="120" height="60" as="geometry" />
        </mxCell>
        <mxCell id="oMr2OzRMPqvlUtYlj50l-72" value="Refresh:&lt;br&gt;window.location.href = &quot;/&quot;;" style="ellipse;whiteSpace=wrap;html=1;" vertex="1" parent="1">
          <mxGeometry x="1500" y="860" width="120" height="80" as="geometry" />
        </mxCell>
      </root>
    </mxGraphModel>
  </diagram>
</mxfile>
